<?xml version="1.0" standalone="no"?><!DOCTYPE svg PUBLIC "-//W3C//DTD SVG 1.1//EN" "http://www.w3.org/Graphics/SVG/1.1/DTD/svg11.dtd"><svg t="1657716739072" class="icon" viewBox="0 0 1024 1024" version="1.1" xmlns="http://www.w3.org/2000/svg" p-id="15037" xmlns:xlink="http://www.w3.org/1999/xlink" width="200" height="200"><defs><style type="text/css"></style></defs><path d="M272.91 503.22a103.75 103.75 0 0 1-0.33-108.47h-0.39a63.27 63.27 0 0 0-38.27 113.69l41.59 5.62c-0.95-3.59-1.82-7.21-2.6-10.84zM751.09 503.22c-0.78 3.63-1.65 7.25-2.6 10.83l41.59-5.62a63.27 63.27 0 0 0-38.27-113.69h-0.39a103.75 103.75 0 0 1-0.33 108.47zM361.37 344.79a103.9 103.9 0 0 1 59.74 188.94L512 546l90.89-12.28a103.9 103.9 0 1 1 146.53-142.1 244.79 244.79 0 0 0-474.84 0 103.91 103.91 0 0 1 86.79-46.83z" fill="#FFD4C7" p-id="15038"></path><path d="M275.51 514.05l5.71 0.77a103.64 103.64 0 0 1-8.31-11.6c0.78 3.63 1.65 7.25 2.6 10.83zM742.78 514.82l5.71-0.77c1-3.58 1.82-7.2 2.6-10.83a103.64 103.64 0 0 1-8.31 11.6z" fill="#FFD4C7" p-id="15039"></path><path d="M272.91 503.22a103.64 103.64 0 0 0 8.31 11.6l139.89 18.91a103.9 103.9 0 1 0-146.53-142.11c-0.68 1-1.35 2.07-2 3.13a103.75 103.75 0 0 0 0.33 108.47zM662.63 344.79a103.9 103.9 0 0 0-59.74 188.94l139.89-18.91a103.76 103.76 0 0 0 8.64-120.07c-0.65-1.06-1.32-2.1-2-3.13a103.91 103.91 0 0 0-86.79-46.83z" fill="#AEF0FF" p-id="15040"></path><path d="M790.08 508.43l-41.59 5.62-5.71 0.77-139.89 18.91L512 546.01l-90.89-12.28-139.89-18.91-5.71-0.77-41.59-5.62-75.58-10.21V898.1l352.67 47.79 354.65-47.8V498.22l-75.58 10.21z" fill="#EF6A6A" p-id="15041"></path><path d="M868.77 485.76a8.76 8.76 0 0 0-1.35 0.1l-46.88 6.33a76.29 76.29 0 0 0-60.2-109 256.25 256.25 0 0 0-24.79-59.37h1.64a12.07 12.07 0 0 0 10.45-18.1A272.2 272.2 0 0 0 586 179.79l20.75-22.14a12.07 12.07 0 0 0-1.47-17.83l-59.4-45.49a12.08 12.08 0 0 0-18 4l-21.92 42.23-35.5-70a12.08 12.08 0 0 0-16.12-5.36l-90 44.56a12.06 12.06 0 0 0-2.4 20.06l64 53.62a273.6 273.6 0 0 0-149.5 122 12.06 12.06 0 0 0 10.43 18.11h1.78a256.33 256.33 0 0 0-24.93 59.61 76.25 76.25 0 0 0-60.18 108.94l-46.89-6.33a8.76 8.76 0 0 0-1.35-0.1 9.92 9.92 0 0 0-9.89 9.92v406.2a9.91 9.91 0 0 0 8.58 9.82L511 960l359.06-48.39a9.91 9.91 0 0 0 8.59-9.82V495.68a9.92 9.92 0 0 0-9.88-9.92zM802.12 459a50.15 50.15 0 0 1-17.41 38l-16.13 2.18a117.19 117.19 0 0 0 5.42-85.29A50.36 50.36 0 0 1 802.12 459z m-48.56-9.32a90.4 90.4 0 0 1-17.77 53.92L606.4 521.13a90.91 90.91 0 1 1 147.16-71.41z m-179.93 75.88L512 533.89l-61.65-8.34a116.32 116.32 0 0 0 27.23-62.83h68.84a116.39 116.39 0 0 0 27.21 62.84zM319.14 323.65l255.05 0.12 13.46-56.69 15.62 56.71h101.71A229.51 229.51 0 0 1 718.53 347a117 117 0 0 0-172.11 89.73h-68.84A117 117 0 0 0 305.47 347a231.45 231.45 0 0 1 13.67-23.35z m42.23 35.14a90.89 90.89 0 0 1 56.22 162.34L288.2 503.64a90.88 90.88 0 0 1 73.17-144.85zM221.88 459A50.34 50.34 0 0 1 250 413.91a117.22 117.22 0 0 0 5.39 85.3L239.3 497a50.11 50.11 0 0 1-17.42-38z m630.78 428.72L511 933.76l-339.68-46V514.09l337.18 45.56 3.48 0.47 3.48-0.47 337.18-45.56z" fill="#512C56" p-id="15042"></path><path d="M500.58 619.42v254.17a13 13 0 1 0 26 0V619.42a13 13 0 1 0-26 0z" fill="#512C56" p-id="15043"></path></svg>