<?xml version="1.0" standalone="no"?><!DOCTYPE svg PUBLIC "-//W3C//DTD SVG 1.1//EN" "http://www.w3.org/Graphics/SVG/1.1/DTD/svg11.dtd"><svg t="1657717110475" class="icon" viewBox="0 0 1024 1024" version="1.1" xmlns="http://www.w3.org/2000/svg" p-id="38612" xmlns:xlink="http://www.w3.org/1999/xlink" width="200" height="200"><defs><style type="text/css"></style></defs><path d="M897.365333 778.581333H126.634667V323.072a23.210667 23.210667 0 0 1 23.381333-23.210667h723.968a23.210667 23.210667 0 0 1 23.381333 23.210667z" fill="#D8E3F0" p-id="38613"></path><path d="M512 691.370667a938.666667 938.666667 0 0 1-385.365333-81.749334v168.96h770.730666v-168.96A938.666667 938.666667 0 0 1 512 691.370667z" fill="#C3CFDE" p-id="38614"></path><path d="M196.778667 381.610667h630.613333v396.970666H196.778667z" fill="#96DDFF" p-id="38615"></path><path d="M353.109333 733.866667a863.232 863.232 0 0 1-156.330666-14.165334v58.88h630.442666V580.266667c-118.101333 94.378667-286.890667 153.6-474.112 153.6z" fill="#69BAF9" p-id="38616"></path><path d="M196.778667 608.768v36.352l133.290666 133.461333h90.624l157.525334-280.746666-66.048-66.048-315.392 176.981333z" fill="#D8E3F0" p-id="38617"></path><path d="M611.84 638.122667l5.290667-130.218667 94.890666-94.890667 42.154667 123.562667-142.336 101.546667zM371.882667 397.994667l130.218666-5.290667 94.72-94.72-123.392-42.154667-101.546666 142.165334z" fill="#FFC670" p-id="38618"></path><path d="M806.570667 175.445333a324.266667 324.266667 0 0 0-305.322667 192L474.624 426.666667a127.829333 127.829333 0 0 0 108.373333 108.373333l59.562667-26.624a324.266667 324.266667 0 0 0 191.829333-304.981333 28.842667 28.842667 0 0 0-27.818666-27.989334z" fill="#F6716F" p-id="38619"></path><path d="M514.389333 414.208a380.416 380.416 0 0 1 316.245334-223.914667 28.672 28.672 0 0 0-24.064-14.848 324.266667 324.266667 0 0 0-305.322667 192L474.624 426.666667a128.170667 128.170667 0 0 0 14.677333 43.178666z" fill="#F6A2A2" p-id="38620"></path><path d="M814.933333 177.152a625.834667 625.834667 0 0 1-267.264 290.133333l-20.992 11.434667a146.602667 146.602667 0 0 1-24.064 10.410667 127.488 127.488 0 0 0 80.384 45.738666l59.562667-26.624a324.266667 324.266667 0 0 0 191.829333-304.810666 28.501333 28.501333 0 0 0-19.456-26.282667z" fill="#F0504D" p-id="38621"></path><path d="M706.56 303.445333m-47.957333 0a47.957333 47.957333 0 1 0 95.914666 0 47.957333 47.957333 0 1 0-95.914666 0Z" fill="#EDF4FF" p-id="38622"></path><path d="M68.266667 778.581333h887.466666v33.109334a37.034667 37.034667 0 0 1-37.034666 37.034666H105.301333A37.034667 37.034667 0 0 1 68.266667 811.52v-32.938667z" fill="#C3CFDE" p-id="38623"></path><path d="M371.882667 778.581333h280.234666v34.133334a35.498667 35.498667 0 0 1-35.498666 35.498666H407.381333a35.498667 35.498667 0 0 1-35.498666-35.498666v-34.133334z" fill="#D8E3F0" p-id="38624"></path><path d="M439.978667 665.6a91.136 91.136 0 0 0-61.098667 23.381333 59.904 59.904 0 0 0-51.2-29.866666 58.709333 58.709333 0 0 0-28.842667 7.68 58.368 58.368 0 0 0 8.362667-32.426667 59.904 59.904 0 0 0-27.306667-51.2 97.109333 97.109333 0 0 0 1.706667-17.066667 84.309333 84.309333 0 0 0-84.138667-84.309333v296.789333H529.066667A91.648 91.648 0 0 0 439.978667 665.6z" fill="#EDF4FF" p-id="38625"></path><path d="M706.56 368.469333a65.024 65.024 0 1 0-65.024-65.024 65.194667 65.194667 0 0 0 65.024 65.024z m0-95.914666a30.890667 30.890667 0 1 1-30.890667 30.890666A30.890667 30.890667 0 0 1 706.56 273.066667z" fill="#3D3D63" p-id="38626"></path><path d="M955.733333 761.514667h-41.301333V323.072a40.448 40.448 0 0 0-40.448-40.277333h-29.696a335.530667 335.530667 0 0 0 7.168-79.872 46.933333 46.933333 0 0 0-44.544-44.544 341.333333 341.333333 0 0 0-256 105.642666L478.890667 238.933333a17.066667 17.066667 0 0 0-19.285334 6.314667l-26.453333 36.864H150.016a40.448 40.448 0 0 0-40.448 40.277333v439.125334H68.266667a17.066667 17.066667 0 0 0-17.066667 17.066666v32.938667a54.101333 54.101333 0 0 0 54.101333 54.101333h813.397334A54.101333 54.101333 0 0 0 972.8 811.52v-32.938667a17.066667 17.066667 0 0 0-17.066667-17.066666z m-81.749333-443.733334a6.314667 6.314667 0 0 1 6.314667 6.144v437.589334h-36.010667V381.610667a17.066667 17.066667 0 0 0-17.066667-17.066667h-11.264a338.944 338.944 0 0 0 19.285334-47.616z m-325.290667 443.733334v-4.778667a108.373333 108.373333 0 0 0-46.592-89.088l66.218667-118.101333c4.096 0 7.850667 2.048 11.946667 2.730666a17.066667 17.066667 0 0 0 9.386666-1.365333l8.533334-3.754667-3.754667 90.282667a17.066667 17.066667 0 0 0 9.045333 15.701333 17.066667 17.066667 0 0 0 17.066667-1.024l142.336-102.4a17.066667 17.066667 0 0 0 6.314667-19.456l-24.405334-71.509333a343.722667 343.722667 0 0 0 51.2-60.757333h13.653334v363.52z m-334.848 0V501.930667a67.072 67.072 0 0 1 50.005334 64.682666 75.946667 75.946667 0 0 1-1.365334 13.824 17.066667 17.066667 0 0 0 7.338667 17.066667A43.008 43.008 0 0 1 290.133333 634.368a42.325333 42.325333 0 0 1-5.802666 20.992c-1.877333 1.365333-3.754667 2.389333-5.461334 3.754667a17.066667 17.066667 0 0 0-2.730666 23.552 17.066667 17.066667 0 0 0 13.141333 6.144 17.066667 17.066667 0 0 0 10.922667-4.096c2.048-1.536 4.096-3.072 6.314666-4.437334a41.984 41.984 0 0 1 49.834667 6.485334 107.52 107.52 0 0 0-13.312 19.626666 17.066667 17.066667 0 0 0 7.338667 23.04 18.261333 18.261333 0 0 0 7.850666 1.877334 17.066667 17.066667 0 0 0 15.189334-9.216 73.898667 73.898667 0 0 1 17.066666-21.674667 74.752 74.752 0 0 1 124.586667 55.808v4.778667z m141.141334-362.837334a14.848 14.848 0 0 0 1.877333 7.509334 17.066667 17.066667 0 0 0 15.018667 8.874666l90.282666-3.584-3.754666 8.533334a16.042667 16.042667 0 0 0-1.365334 9.386666 90.794667 90.794667 0 0 0 2.730667 11.776l-167.424 94.037334a102.4 102.4 0 0 0-79.189333-68.266667v-68.266667z m85.333333 249.002667a109.397333 109.397333 0 0 0-57.856 17.066667 76.970667 76.970667 0 0 0-58.88-23.04 49.152 49.152 0 0 0 0-6.997334 76.8 76.8 0 0 0-26.112-57.856v-4.778666l173.909333-97.792a129.365333 129.365333 0 0 0 9.386667 15.530666l-75.605333 52.906667a17.066667 17.066667 0 0 0 9.728 31.061333 17.066667 17.066667 0 0 0 9.898666-3.072l78.506667-54.954666a149.845333 149.845333 0 0 0 32.256 22.869333l-64 114.176a109.397333 109.397333 0 0 0-31.573333-4.266667z m278.016-164.181333l15.530667 46.592-103.424 73.898666 2.901333-72.362666 17.066667-7.338667a347.136 347.136 0 0 0 67.584-40.789333z m88.064-290.133334a11.946667 11.946667 0 0 1 11.264 11.434667 306.005333 306.005333 0 0 1-182.101333 288.256L580.266667 517.632a112.298667 112.298667 0 0 1-88.405334-88.405333l24.405334-54.784a307.2 307.2 0 0 1 289.792-181.930667z m-326.485333 82.602667l46.592 16.042667a347.136 347.136 0 0 0-40.789334 68.266666l-7.338666 16.213334-72.362667 2.901333z m-336.213334 47.104a6.314667 6.314667 0 0 1 6.314667-6.144H409.6l-34.133333 47.616H196.778667a17.066667 17.066667 0 0 0-17.066667 17.066667v379.904H143.701333zM85.333333 811.52v-15.872h269.482667v17.066667a51.2 51.2 0 0 0 3.584 18.773333H105.301333A19.968 19.968 0 0 1 85.333333 811.52z m322.048 19.968a18.432 18.432 0 0 1-18.432-18.432v-17.066667h246.101334v17.066667a18.432 18.432 0 0 1-18.432 18.432zM938.666667 811.52a19.968 19.968 0 0 1-19.968 19.968H665.6a51.2 51.2 0 0 0 3.584-18.432v-17.066667H938.666667z" fill="#3D3D63" p-id="38627"></path><path d="M478.890667 580.266667a17.066667 17.066667 0 0 0-24.064 0L426.666667 606.378667a17.066667 17.066667 0 0 0-0.853334 24.064 17.066667 17.066667 0 0 0 12.458667 5.461333 17.066667 17.066667 0 0 0 11.776-4.778667L477.866667 603.989333a17.066667 17.066667 0 0 0 1.024-23.722666z" fill="#3D3D63" p-id="38628"></path></svg>